<?xml version="1.0" encoding="utf-8"?>
<!-- Generator: Adobe Illustrator 25.0.0, SVG Export Plug-In . SVG Version: 6.00 Build 0)  -->
<svg version="1.1" id="pn_x5F_white_x5F_standard" xmlns="http://www.w3.org/2000/svg" xmlns:xlink="http://www.w3.org/1999/xlink"
	 x="0px" y="0px" viewBox="0 0 141.7 26.2" style="enable-background:new 0 0 141.7 26.2;" xml:space="preserve">
<style type="text/css">
	.st0{fill:#FFFFFF;}
</style>
<path class="st0" d="M19.1,13.3c0,5-3.5,8.6-8.3,8.6c-3,0-4.5-1.5-4.5-1.5L5.9,20v6.2H0.1V5.1h5.8v2.1l0.4-0.5c0,0,1.6-2.1,4.9-2.1
	C15.9,4.6,19.1,8.1,19.1,13.3z M12.9,13.3c0-2.2-1.4-3.7-3.6-3.7c-2.2,0-3.6,1.5-3.6,3.7c0,2.1,1.5,3.6,3.6,3.6
	C11.5,16.9,12.9,15.4,12.9,13.3z M40,13.1c0,6.1-4.9,8.8-9.8,8.8c-4.4,0-9.6-2.2-9.6-8.5c0-6.1,4.9-8.8,9.8-8.8
	C35.1,4.6,40,7.2,40,13.1z M33.8,13.3c0-2.2-1.4-3.7-3.6-3.7c-2.2,0-3.6,1.5-3.6,3.7c0,2.1,1.5,3.6,3.6,3.6
	C32.3,16.9,33.8,15.4,33.8,13.3z M50.2,11.2c-0.3,0-0.5-0.1-0.8-0.1c-1.5-0.2-2.3-0.3-2.3-1.2c0-1,1.4-1.1,2.6-1.1
	c2.3,0,4.3,0.6,5,0.8l1-4.3c-0.7-0.2-3-0.7-5.9-0.7c-5.6,0-8.8,2.1-8.8,5.7c0,2.9,1.8,4.3,6.4,4.9c2.1,0.3,3,0.4,3,1.4
	c0,1-1.3,1.2-2.4,1.2c-2.6,0-5.1-0.9-5.8-1.2L41,20.9c0.7,0.2,3.3,1,6.4,1c5.9,0,9.1-2,9.1-5.7C56.5,13.7,55.4,12,50.2,11.2z
	 M141.6,0v21.4h-5.8v-2.1l-0.4,0.5c0,0-1.6,2.1-4.9,2.1c-4.7,0-7.8-3.5-7.8-8.7c0-5,3.5-8.6,8.3-8.6c3,0,4.5,1.5,4.5,1.5l0.4,0.4
	V1.1L141.6,0z M136,13.2c0-2.1-1.5-3.6-3.6-3.6c-2.1,0-3.6,1.5-3.6,3.6c0,2.2,1.4,3.7,3.6,3.7C134.6,17,136,15.5,136,13.2z
	 M108.7,13.1c0,6.1-4.9,8.8-9.8,8.8c-4.4,0-9.6-2.2-9.6-8.5c0-6.1,4.9-8.8,9.8-8.8C103.8,4.6,108.7,7.2,108.7,13.1z M102.5,13.3
	c0-2.2-1.4-3.7-3.6-3.7c-2.2,0-3.6,1.5-3.6,3.7c0,2.1,1.5,3.6,3.6,3.6C101,16.9,102.5,15.4,102.5,13.3z M63.9,1.4h-5.8v20h5.8V9.9h3
	l2.6-4.8h-5.6V1.4z M120.1,10c0.9,0,1.5,0.1,1.9,0.2l0.1-5.3c-0.2,0-0.6-0.1-1.2-0.1c-3.3,0-4.2,2-4.2,2.1l-0.4,0.9V5.1h-5.8v16.3
	h5.8v-7.8C116.3,11.2,117.6,10,120.1,10z M81.4,4.6c-3.4,0-4.7,2.1-4.7,2.1l-0.4,0.6l0-2.2h-5.8v16.3h5.8v-8.4
	c0-2.3,0.9-3.3,2.9-3.3c2.2,0,2.4,2,2.4,3.8v7.9h5.8v-10C87.4,6.9,85.3,4.6,81.4,4.6z"/>
</svg>
